<?xml version="1.0" standalone="no"?><!DOCTYPE svg PUBLIC "-//W3C//DTD SVG 1.1//EN" "http://www.w3.org/Graphics/SVG/1.1/DTD/svg11.dtd"><svg t="1783013519314" class="icon" viewBox="0 0 1024 1024" version="1.1" xmlns="http://www.w3.org/2000/svg" p-id="4242" xmlns:xlink="http://www.w3.org/1999/xlink" width="200" height="200"><path d="M204.8 525.77792a30.72 30.72 0 0 1 30.69952 29.568l0.02048 1.152V808.96a10.24 10.24 0 0 0 9.472 10.2144L245.76 819.2h532.48a10.24 10.24 0 0 0 10.2144-9.472L788.48 808.96v-252.45696a30.72 30.72 0 0 1 61.41952-1.152l0.02048 1.152V808.96c0 39.05024-31.232 70.8096-70.07744 71.66464L778.24 880.64H245.76c-39.05536 0-70.8096-31.232-71.66464-70.07744L174.08 808.96v-252.46208a30.72 30.72 0 0 1 30.72-30.72zM793.77408 143.36H230.22592a71.68 71.68 0 0 0-69.43744 53.89824L113.60256 381.4912C108.62592 400.93184 123.29984 419.84 143.36 419.84h737.28c20.06016 0 34.73408-18.90816 29.75744-38.34368l-47.18592-184.23808A71.68 71.68 0 0 0 793.77408 143.36z m0 61.44l0.8192 0.03072a10.24 10.24 0 0 1 9.09824 7.66976L841.0624 358.4H182.9376l37.37088-145.89952A10.24 10.24 0 0 1 230.22592 204.8h563.54816z" fill="#ffffff" p-id="4243"></path><path d="M389.12 358.4a30.72 30.72 0 0 1 30.69952 29.568L419.84 389.12v61.44c0 84.83328-68.76672 153.6-153.6 153.6-83.98336 0-152.22272-67.39968-153.57952-151.06048L112.64 450.56V389.12a30.72 30.72 0 0 1 61.41952-1.152L174.08 389.12v61.44c0 50.89792 41.26208 92.16 92.16 92.16 50.3296 0 91.2384-40.3456 92.14464-90.4704L358.4 450.56V389.12a30.72 30.72 0 0 1 30.72-30.72z" fill="#ffffff" p-id="4244"></path><path d="M634.88 358.4a30.72 30.72 0 0 1 30.69952 29.568L665.6 389.12v61.44c0 84.83328-68.76672 153.6-153.6 153.6-83.98336 0-152.22272-67.39968-153.57952-151.06048L358.4 450.56V389.12a30.72 30.72 0 0 1 61.41952-1.152L419.84 389.12v61.44c0 50.89792 41.26208 92.16 92.16 92.16 50.3296 0 91.2384-40.3456 92.14464-90.4704L604.16 450.56V389.12a30.72 30.72 0 0 1 30.72-30.72z" fill="#ffffff" p-id="4245"></path><path d="M880.64 358.4a30.72 30.72 0 0 1 30.69952 29.568L911.36 389.12v61.44c0 84.83328-68.76672 153.6-153.6 153.6-83.98336 0-152.22272-67.39968-153.57952-151.06048L604.16 450.56V389.12a30.72 30.72 0 0 1 61.41952-1.152L665.6 389.12v61.44c0 50.89792 41.26208 92.16 92.16 92.16 50.3296 0 91.2384-40.3456 92.14464-90.4704L849.92 450.56V389.12a30.72 30.72 0 0 1 30.72-30.72z" fill="#ffffff" p-id="4246"></path></svg>