<?xml version="1.0" standalone="no"?><!DOCTYPE svg PUBLIC "-//W3C//DTD SVG 1.1//EN" "http://www.w3.org/Graphics/SVG/1.1/DTD/svg11.dtd"><svg t="1781868467442" class="icon" viewBox="0 0 1024 1024" version="1.1" xmlns="http://www.w3.org/2000/svg" p-id="29344" xmlns:xlink="http://www.w3.org/1999/xlink" width="200" height="200"><path d="M0 0h1024v1024H0z" fill="#FFFFFF" fill-opacity=".01" p-id="29345"></path><path d="M918.8352 750.9504c-6.4-77.2096-47.36-163.2768-64.4096-206.336l-43.776-111.104c-1.3824-46.3872 12.544-152.576-60.2112-285.7984C677.5296 14.4384 531.456 2.4064 504.4224 1.024c-26.9312-1.0752-195.8912-2.4576-278.9376 142.4384C142.6432 288.4608 164.864 433.6128 164.864 433.6128l-46.1824 112.128s-21.6576 51.0976-40.2944 113.2032c-18.8928 62.2592-37.2224 160.1024-18.8928 179.8656 18.944 19.968 86.3744-91.0336 92.6208-101.0176 0 0 4.864 52.8896 17.5104 80.5888 10.3936 22.016 34.9696 77.4144 84.6848 120.7296-23.9104 7.68-81.408 28.2624-89.7024 49.2032-10.5472 27.0336 8.192 30.0544 40.704 31.7952 32.2048 1.792 187.392 5.9392 261.632-4.2496 0.7168-0.256 1.6896-0.256 2.4064-0.4096 7.3728 0.3072 14.336 0.4096 20.3776 0.4096 4.1984 0 8.9088 0 14.336-0.256 0.6656 0 0.9728 0.256 1.6384 0.256 74.24 10.4448 229.4784 6.3488 261.6832 4.2496 32.256-1.7408 51.2512-4.9152 40.704-31.744-8.448-21.5552-67.584-42.24-90.7776-49.5104a213.504 213.504 0 0 0 21.0944-20.6848c83.712-91.0336 76.8-148.1728 80.2304-181.248 0 0 70.5536 100.5056 85.6576 103.7824 15.9744 3.2768 20.6848-12.5952 14.592-89.7536z" fill="#FFFFFF" p-id="29346"></path><path d="M297.1648 968.192a232.1408 232.1408 0 0 1-42.3424-29.7472c-23.9104 7.7824-81.408 28.2112-89.7024 49.152-10.5472 27.0336 8.192 30.0544 40.6528 31.8464 32.256 1.792 187.392 5.888 261.7344-4.2496 0.6656-0.256 1.6384-0.256 2.3552-0.4096a368.128 368.128 0 0 1-172.6976-46.592z m420.352-29.7472c-73.5744 64.512-164.2496 75.3664-213.0944 76.9024 0.6656 0 0.9728 0.256 1.6384 0.256 74.2912 10.4448 229.5296 6.2976 261.7344 4.2496 32.2048-1.792 51.2-4.9152 40.6528-31.7952-8.6016-21.8112-67.7376-42.3424-90.9312-49.664z" fill="#E5A627" p-id="29347"></path><path d="M854.272 544.3584l-43.7248-111.3088s-300.032 93.7472-645.5808 0l-46.2336 112.128s63.488 22.2208 165.376 38.0928v150.784s80.896 10.9568 141.824 3.4304V598.016c123.7504 6.7072 273.8176-3.0208 428.3392-53.6064z" fill="#CE2D22" p-id="29348"></path><path d="M750.4384 147.5584C677.8368 14.592 531.7632 2.5088 504.6784 1.1264 477.7472-0.1536 308.7872-1.536 225.792 143.5136 142.7456 288.6144 165.12 433.6128 165.12 433.6128c346.9312 95.5392 645.5296 0 645.5296 0-1.536-46.592 12.6464-153.088-60.2112-286.0544z m-348.16 144.0256c-31.5392 0-56.832-36.0448-56.832-80.5888 0-44.3904 25.6-80.5888 56.832-80.5888 31.488 0 56.7296 36.0448 56.7296 80.5888 0 44.544-25.2416 80.5888-56.7808 80.5888z m169.472 0c-31.5392 0-56.832-36.0448-56.832-80.5888 0-44.3904 25.6-80.5888 56.832-80.5888 31.488 0 56.7808 36.0448 56.7808 80.5888 0 44.544-25.5488 80.5888-56.7808 80.5888z" fill="#070001" p-id="29349"></path><path d="M394.4448 217.6c0 17.664 11.1104 32.2048 24.576 32.2048 13.6192 0 24.576-14.2336 24.576-32.256 0-17.92-11.1104-32.1536-24.576-32.1536-13.4656 0.1024-24.576 14.5408-24.576 32.2048z m177.3056-20.1728c16.384 0 38.912 8.3968 33.9968 21.504-3.8912 10.4448-23.1936-3.3792-30.1056-4.5056-8.7552-1.0752-21.6576-2.048-32.256 10.752-7.0144 8.2944-18.1248 7.3728-14.2336-4.1472 4.4032-12.9024 20.9408-23.552 42.5984-23.552z" fill="#070001" p-id="29350"></path><path d="M290.304 359.3216c0 13.568 102.5024 64.3072 196.352 63.5904 93.8496-0.6656 198.4-50.8416 198.4-65.536 0-14.4896-75.264-40.448-200.3456-40.448-124.928-0.1024-194.3552 22.3744-194.3552 42.3936z" fill="#E5A627" p-id="29351"></path><path d="M918.8352 750.9504c-6.4-77.2096-47.36-163.2768-64.4096-206.336-40.448 13.1584-80.9472 23.552-120.2688 31.8464 3.4816 17.2544 7.936 54.9376 6.2464 126.9248-2.7648 107.3152-38.144 194.7648-125.3376 245.3504-87.1936 50.5344-240.3328 39.424-307.0976-43.2128-63.0272-77.568-83.456-135.5264-68.3008-329.6256-75.776-14.848-120.9344-30.4128-120.9344-30.4128s-21.6576 51.0976-40.2432 113.152c-18.8928 62.2592-37.2224 160.1536-18.8928 179.8656 18.8928 20.0192 86.528-90.9824 92.6208-101.0176 0 0 4.864 52.9408 17.4592 80.5888 12.6464 27.6992 48.0768 107.3664 127.1808 150.528 79.0016 43.008 146.176 47.104 193.28 47.104 47.0528 0 164.864-6.8096 248.4736-97.792 83.6096-91.0336 76.8-148.224 80.2304-181.248 0 0 70.5536 100.4544 85.6576 103.7824 15.7184 3.584 20.48-12.3392 14.336-89.4976z" fill="#070001" p-id="29352"></path></svg>