<?xml version="1.0" standalone="no"?><!DOCTYPE svg PUBLIC "-//W3C//DTD SVG 1.1//EN" "http://www.w3.org/Graphics/SVG/1.1/DTD/svg11.dtd"><svg t="1781103611271" class="icon" viewBox="0 0 1024 1024" version="1.1" xmlns="http://www.w3.org/2000/svg" p-id="10398" xmlns:xlink="http://www.w3.org/1999/xlink" width="200" height="200"><path d="M864 144H160A80.4 80.4 0 0 0 80 224V768a80.4 80.4 0 0 0 80 80H208v48a48 48 0 0 0 96 0V848H720v48a48 48 0 0 0 96 0V848h48a80.4 80.4 0 0 0 80-80V224A80.4 80.4 0 0 0 864 144ZM176 752V240H848v224H761.2a176 176 0 1 0 0 96H848v192Zm496-240a80 80 0 1 1-80-80A80.4 80.4 0 0 1 672 512Z" p-id="10399" fill="#ffffff"></path></svg>