<?xml version="1.0" standalone="no"?><!DOCTYPE svg PUBLIC "-//W3C//DTD SVG 1.1//EN" "http://www.w3.org/Graphics/SVG/1.1/DTD/svg11.dtd"><svg t="1781104727851" class="icon" viewBox="0 0 1024 1024" version="1.1" xmlns="http://www.w3.org/2000/svg" p-id="22787" xmlns:xlink="http://www.w3.org/1999/xlink" width="200" height="200"><path d="M961.024 501.76H62.976C28.16 501.76 0 473.6 0 438.784V316.416C0 281.6 28.16 253.44 62.976 253.44h898.048c34.816 0 62.976 28.16 62.976 62.976v122.368c0 34.816-28.16 62.976-62.976 62.976zM62.976 307.712c-5.12 0-9.216 4.096-9.216 9.216v122.368c0 5.12 4.096 9.216 9.216 9.216h898.048c5.12 0 9.216-4.096 9.216-9.216v-122.88c0-5.12-4.096-9.216-9.216-9.216H62.976z" fill="#ffffff" p-id="22788"></path><path d="M804.864 979.968H219.136c-67.072 0-121.856-54.784-121.856-121.856V474.624c0-14.848 12.288-27.136 27.136-27.136s27.136 12.288 27.136 27.136v383.488c0 37.376 30.72 68.096 68.096 68.096h586.24c37.376 0 68.096-30.72 68.096-68.096V474.624c0-14.848 12.288-27.136 27.136-27.136s27.136 12.288 27.136 27.136v383.488c-1.536 67.072-55.808 121.856-123.392 121.856zM284.672 296.96c-8.192 0-16.384-3.584-21.504-10.752L233.472 245.76C213.504 218.624 204.8 185.344 209.92 152.064s22.528-62.976 49.664-82.944c56.32-41.472 135.68-29.696 177.152 26.624L512 196.608l75.264-101.376c41.472-56.32 120.832-68.096 177.152-26.624 56.32 41.472 68.096 120.832 26.624 177.152l-22.528 30.72c-8.704 11.776-25.6 14.336-37.888 5.632-11.776-8.704-14.336-25.6-5.632-37.888l22.528-30.72c24.064-32.256 16.896-77.824-15.36-101.888-32.256-24.064-77.824-16.896-101.888 15.36l-96.768 130.56c-5.12 6.656-13.312 10.752-21.504 10.752-8.704 0-16.384-4.096-21.504-10.752L393.728 127.488c-11.264-15.36-28.672-25.6-47.616-28.672-19.456-3.072-38.4 2.048-53.76 13.312s-25.6 28.672-28.672 47.616c-3.072 19.456 2.048 38.4 13.312 53.76l29.696 39.936c8.704 11.776 6.144 28.672-5.632 37.888-5.12 3.584-10.752 5.632-16.384 5.632z" fill="#ffffff" p-id="22789"></path><path d="M512 979.968c-14.848 0-27.136-12.288-27.136-27.136V269.824c0-14.848 12.288-27.136 27.136-27.136s27.136 12.288 27.136 27.136v683.008c0 15.36-12.288 27.136-27.136 27.136z" fill="#ffffff" p-id="22790"></path></svg>