<?xml version="1.0" standalone="no"?><!DOCTYPE svg PUBLIC "-//W3C//DTD SVG 1.1//EN" "http://www.w3.org/Graphics/SVG/1.1/DTD/svg11.dtd"><svg t="1781272809591" class="icon" viewBox="0 0 1024 1024" version="1.1" xmlns="http://www.w3.org/2000/svg" p-id="2525" xmlns:xlink="http://www.w3.org/1999/xlink" width="200" height="200"><path d="M340.153131 623.618591c16.986243 0 28.310405-11.324162 28.310405-28.310405 0-17.046478-11.324162-28.37064-28.310405-28.37064H56.687671V340.153131h737.03429c0 17.046478 11.324162 28.310405 28.310405 28.310405s28.310405-11.263927 28.310405-28.310405V141.739356A140.347327 140.347327 0 0 0 708.730511 0.006626H141.739356A140.347327 140.347327 0 0 0 0.006626 141.739356v623.611965a140.347327 140.347327 0 0 0 141.73273 141.73273h198.413775c16.986243 0 28.310405-11.324162 28.310405-28.310405 0-17.046478-11.324162-28.37064-28.310405-28.37064H141.739356c-45.356883 0-85.051685-39.694802-85.051685-85.051685v-141.73273h283.46546z m-283.46546-481.879235C56.687671 96.382473 96.382473 56.687671 141.739356 56.687671h566.93092c45.356883 0 85.051685 39.755037 85.051685 85.051685v141.73273H56.627436V141.739356z" fill="#ffffff" p-id="2526"></path><path d="M997.797817 751.196118v-1.264933a351.771841 351.771841 0 0 0 6.445134-63.487589c0-20.720807-2.590101-42.766782-6.445134-63.487589v-3.915269s0-1.264933-1.325168-1.264933c0 0 0-1.325168-1.264933-1.325168l-5.180202-5.180202s-1.325168 0-1.325168-1.264933c0 0-1.264933 0-1.264933-1.325168 0 0-1.325168 0-1.325168-1.264933h-5.180202a85.894974 85.894974 0 0 1-69.932724-42.766782 83.184403 83.184403 0 0 1-1.325167-81.618295s0-1.264933 1.325167-2.590101v-1.325168c1.264933-2.590101 1.264933-3.855034 1.264933-6.445135v-1.325168c0-2.590101-1.264933-3.855034-1.264933-6.445134v-1.325168c-1.325168-2.590101-2.650336-3.855034-3.915268-5.180202a285.694151 285.694151 0 0 0-110.049171-63.367119h-11.685571s-1.264933 0-1.264933 1.264933c0 0-1.325168 0-1.325168 1.325168l-3.855034 3.855033-1.325168 1.325168s0 1.264933-1.264933 1.264933c-15.540605 24.636076-42.766782 38.851513-71.257892 38.851514-28.49111 0-55.717287-14.215437-71.257891-38.851514 0 0 0-1.264933-1.325168-1.264933l-1.264933-1.325168-1.325168-1.264933-2.590101-2.5901s-1.264933 0-1.264933-1.325168c0 0-1.325168 0-2.590101-1.264933h-14.275672c-40.116446 12.950504-77.703027 34.936245-108.784238 63.487589-1.325168 1.264933-2.590101 3.855034-3.915268 5.180202v1.264933c-1.264933 2.590101-1.264933 3.915269-1.264933 6.505369v1.264933c0 2.590101 0 3.915269 1.264933 6.50537v1.264933c0 1.325168 0 1.325168 1.325168 2.590101 12.950504 25.901009 12.950504 55.717287-1.325168 81.618295-14.215437 24.636076-40.176681 40.176681-69.932724 42.766782h-5.180202c-1.325168 0-1.325168 0-2.590101 1.264933 0 0-1.325168 0-1.325168 1.325168l-5.180202 5.180202-1.264933 1.325168s0 1.264933-1.325168 1.264933c0 0 0 1.325168-1.264933 1.325168v5.180202a337.556404 337.556404 0 0 0-6.505369 62.162421c0 20.720807 2.590101 42.766782 6.505369 63.487589v1.264933c0 2.590101 1.264933 3.915269 2.590101 5.180202l3.855034 3.915269c-2.590101 2.590101-1.264933 3.855034 1.325168 5.180201h1.264933c1.325168 0 3.915269 1.264933 5.180202 1.264933 28.49111 1.325168 54.452354 16.865773 68.667791 42.766782 14.275672 24.636076 15.540605 54.392119 2.590101 80.353363 0 0 0 1.264933-1.264933 1.264933v1.325168c-1.325168 2.590101-1.325168 3.855034-1.325168 6.445135v1.325167c0 2.590101 1.325168 3.855034 1.325168 6.445135v1.325168a17.950001 17.950001 0 0 0 3.855034 5.180202c32.406379 28.49111 68.667791 50.537085 108.844472 63.487589h1.264933c1.325168 0 3.915269 1.264933 5.180202 1.264933 1.325168 0 3.915269 0 5.180201-1.264933h1.325168a9.818289 9.818289 0 0 0 5.180202-2.590101l5.180202-5.180202c15.540605-24.636076 42.766782-38.911748 71.257892-38.911748 28.49111 0 55.717287 14.275672 71.257892 38.911748l5.180201 5.180202c1.264933 1.264933 2.590101 1.264933 3.855034 1.264933h1.325168c1.264933 0 3.855034 1.325168 5.180202 1.325168 1.264933 0 3.855034 0 5.180202-1.325168a294.910092 294.910092 0 0 0 110.109405-63.487589l1.325168-1.264933c1.264933-1.325168 2.590101-3.915269 3.855034-5.180202v-1.325168c1.325168-2.590101 1.325168-3.855034 1.325167-6.445134v-1.325168c0-2.590101 0-3.855034-1.325167-6.445135v-1.325168s0-1.264933-1.264933-1.264933a84.148161 84.148161 0 0 1 2.5901-80.353362 88.06343 88.06343 0 0 1 68.667791-42.766783c1.264933 0 3.855034 0 5.180202-1.264933h1.264933c1.325168-1.325168 3.915269-1.325168 5.180202-2.5901l3.915269-3.915269c3.794799-1.325168 5.119967-2.650336 5.119967-5.240437z m-120.469809 37.58658a118.662762 118.662762 0 0 0-9.095471 102.339103 274.24952 274.24952 0 0 1-72.583059 42.766782 122.156386 122.156386 0 0 0-93.243632-42.766782c-36.261412 0-69.992959 15.540605-93.303867 42.766782a274.189285 274.189285 0 0 1-72.522825-42.766782c11.625337-33.731546 9.035236-71.257892-9.035236-102.399337a120.469809 120.469809 0 0 0-85.533564-59.572321 238.530221 238.530221 0 0 1-3.915269-42.766782c0-14.215437 1.325168-27.105707 3.915269-41.381379a124.204373 124.204373 0 0 0 85.533564-59.632556c18.070471-32.406379 21.98574-69.932724 9.035236-103.604035a274.189285 274.189285 0 0 1 72.522825-42.766782c23.310908 28.49111 58.307387 44.031715 94.5688 44.031715 37.58658 0 71.257892-16.865773 94.568799-44.031715 25.901009 10.360404 50.59732 24.575841 72.58306 42.766782-12.950504 33.671312-9.035236 72.522825 9.035236 103.604035 18.130706 32.406379 49.272152 53.127186 85.533564 59.632556 2.590101 14.215437 3.855034 27.165942 3.855034 41.441614 0 14.215437-1.264933 28.49111-3.855034 42.766782-37.58658 6.445135-69.992959 27.165942-88.123665 59.57232z" fill="#ffffff" p-id="2527"></path><path d="M701.140913 571.153989c-64.752522 0-116.55454 51.802018-116.55454 116.55454 0 64.812757 51.802018 116.614775 116.55454 116.614775 64.812757 0 116.614775-51.802018 116.614775-116.614775 0-63.487589-51.802018-116.55454-116.614775-116.55454z m0 194.317801c-42.766782 0-77.703027-34.936245-77.703027-77.703026 0-42.766782 34.936245-77.763262 77.703027-77.763262 42.766782 0 77.703027 34.936245 77.703026 77.703027 0 42.766782-34.936245 77.703027-77.703026 77.703027z" fill="#ffffff" p-id="2528"></path></svg>