<?xml version="1.0" standalone="no"?><!DOCTYPE svg PUBLIC "-//W3C//DTD SVG 1.1//EN" "http://www.w3.org/Graphics/SVG/1.1/DTD/svg11.dtd"><svg t="1782060461495" class="icon" viewBox="0 0 1024 1024" version="1.1" xmlns="http://www.w3.org/2000/svg" p-id="3432" xmlns:xlink="http://www.w3.org/1999/xlink" width="200" height="200"><path d="M944.128 630.784H72.704c-39.936 0-72.704 32.768-72.704 72.704v181.248c0 39.936 32.768 72.704 72.704 72.704h872.448c39.936 0 72.704-32.768 72.704-72.704V703.488c-1.024-39.936-32.768-72.704-73.728-72.704z m0 253.952H72.704V703.488h872.448v181.248zM35.84 144.384h512c39.936 0 72.704 32.768 72.704 72.704v205.824L517.12 318.464c-14.336-14.336-36.864-14.336-51.2 0-7.168 7.168-10.24 16.384-10.24 25.6 0 9.216 4.096 19.456 10.24 25.6l192.512 192.512L849.92 369.664c13.312-14.336 13.312-36.864-1.024-50.176-14.336-14.336-35.84-14.336-50.176-1.024L694.272 422.912V217.088C694.272 137.216 628.736 71.68 548.864 71.68h-512C16.384 71.68 0 88.064 0 107.52c0 20.48 16.384 36.864 35.84 36.864z" p-id="3433" fill="#ffffff"></path></svg>