<?xml version="1.0" standalone="no"?><!DOCTYPE svg PUBLIC "-//W3C//DTD SVG 1.1//EN" "http://www.w3.org/Graphics/SVG/1.1/DTD/svg11.dtd"><svg t="1781104809135" class="icon" viewBox="0 0 1034 1024" version="1.1" xmlns="http://www.w3.org/2000/svg" p-id="24808" xmlns:xlink="http://www.w3.org/1999/xlink" width="201.953125" height="200"><path d="M517.517755 405.127653c-127.611897 0-248.339681-15.524137-339.996048-43.758298-48.688811-14.989223-87.702654-33.071645-115.994958-53.747238C10.686653 270.573502 0 230.013059 0 202.511498s10.686653-68.09689 61.550006-105.133876c28.524875-20.733735 67.44569-38.816157 115.843787-53.735609C269.294359 15.489252 390.033773 0 517.517755 0c127.704925 0 248.455967 15.535766 340.019305 43.758298 48.246925 14.84968 87.214254 32.908845 115.832158 53.700724 50.88661 36.932329 61.573263 77.574172 61.573264 105.157133s-10.686653 68.085261-61.550007 105.145505c-28.559761 20.722107-67.515461 38.7929-115.832157 53.712352-91.79591 28.199275-212.546951 43.653641-340.042563 43.653641z m0-349.787302c-122.099956 0-237.141371 14.628738-323.843968 41.200014-42.467527 13.117024-75.992687 28.455104-99.552164 45.583983-25.361905 18.466165-38.7929 39.397586-38.7929 60.38715s13.430995 41.862842 38.816157 60.387149c23.361792 17.070737 56.875322 32.408817 99.680078 45.595613 86.493283 26.629419 201.464927 41.304671 323.692797 41.30467s237.129743-14.640366 323.762568-41.22327c42.455899-13.093767 75.957801-28.443475 99.552164-45.572355 25.338648-18.477793 38.769643-39.3627 38.769643-60.38715s-13.407738-42.025642-38.769643-60.387149c-23.675763-17.210279-57.166036-32.559988-99.563792-45.583984-86.458397-26.629419-201.430041-41.304671-323.75094-41.304671zM657.490819 632.349856H377.567949c-19.349936 0-34.990359-12.372796-34.990359-27.67599s15.640423-27.67599 34.990359-27.67599h279.92287c19.349936 0 34.990359 12.372796 34.990358 27.67599s-15.640423 27.67599-34.990358 27.67599zM657.490819 771.218206H377.567949c-19.349936 0-34.990359-12.372796-34.990359-27.67599s15.640423-27.67599 34.990359-27.67599h279.92287c19.349936 0 34.990359 12.372796 34.990358 27.67599s-15.640423 27.67599-34.990358 27.67599z" fill="#ffffff" p-id="24809"></path><path d="M492.748907 612.081264L354.927128 474.259485c-9.535425-9.523797-8.488854-25.978219 2.325714-36.792787s27.26899-11.872767 36.792786-2.325713l137.833408 137.798521c9.523797 9.535425 8.477225 25.966591-2.325714 36.792787s-27.26899 11.872767-36.792786 2.325714z" fill="#ffffff" p-id="24810"></path><path d="M634.18717 435.117728c9.535425-9.523797 25.978219-8.477225 36.792787 2.325713s11.872767 27.257362 2.325713 36.792787l-137.798521 137.833407c-9.535425 9.535425-25.966591 8.488854-36.792787-2.325713s-11.872767-27.257362-2.325713-36.792787l137.798521-137.833407z" fill="#ffffff" p-id="24811"></path><path d="M517.529384 919.366152c-15.314823 0-27.67599-15.640423-27.67599-34.990358V604.894809c0-19.349936 12.361167-34.990359 27.67599-34.990359s27.67599 15.640423 27.67599 34.990359v279.585642c0 19.245279-12.372796 34.885702-27.67599 34.885701z" fill="#ffffff" p-id="24812"></path><path d="M29.071418 833.210098a63.585006 63.585006 0 0 0-2.325713 16.059051c0 96.517108 219.558978 174.730851 490.295279 174.730851s490.411565-78.178857 490.411565-174.614565a63.829205 63.829205 0 0 0-1.953599-13.80311c-100.691763 81.597656-280.748498 136.170522-486.795081 136.170523-207.988553 0-389.533744-55.642694-489.632451-138.54275zM727.459908 797.661568C893.015819 769.566949 1007.382777 709.458886 1007.382777 639.780511a63.724548 63.724548 0 0 0-1.907085-13.547281c-64.422262 52.665781-161.730113 94.051852-278.015784 117.006643zM26.792219 639.780511c0 69.771403 114.808844 129.995753 280.678727 157.997342V743.18173C190.755017 720.168796 93.191338 678.550154 28.803961 625.593659a63.445463 63.445463 0 0 0-2.011742 14.186852zM727.459908 587.510101C893.015819 559.450369 1007.499063 499.260905 1007.499063 429.617416a63.95712 63.95712 0 0 0-2.325713-16.082309c-64.422262 52.561124-161.637084 93.877423-277.748328 116.797329zM26.792219 429.617416c0 69.771403 114.808844 130.007381 280.678727 157.997342v-57.305579c-116.506615-23.001306-213.965637-64.526919-278.318128-117.332243a63.95712 63.95712 0 0 0-2.360599 16.64048z" fill="#ffffff" p-id="24813"></path></svg>